<svg id="Capa_1" enable-background="new 0 0 512.176 512.176" height="512" viewBox="0 0 512.176 512.176" width="512" xmlns="http://www.w3.org/2000/svg"><g><path d="m421.522 432.496c-11.069-21.773-38.756-29.795-61.273-20.328-21.628 9.093-43.378 16.078-66.656 20.967l-31.426-6.799 13.259-20.671c-17.587-22-39.736-39.108-64.338-50.896-35.517-17.016-77.3-22.604-118.129-12.94-29.209 6.943-52.544 17.285-79.453 30.747l-13.418 6.709 53.672 107.329 13.418-6.709c14.048-6.987 30.927.264 57.587 9.434 24.287 8.368 52.85 17.776 86.323 21.215 7.956.817 15.936 1.622 24.492 1.622 36.064-.015 77.622-8.188 125.801-32.271l67.075-33.545s-6.859-13.716-6.934-13.864z" fill="#ffd9b3"/><path d="m361.381 479.905 67.075-33.545s-6.859-13.716-6.934-13.865c-11.069-21.773-38.756-29.795-61.273-20.328-21.628 9.093-43.378 16.078-66.656 20.967l-31.426-6.799 13.259-20.671c-17.587-22-39.736-39.108-64.338-50.896v155.784c7.956.817 15.936 1.622 24.492 1.622 36.065-.013 77.622-8.187 125.801-32.269z" fill="#fb9"/><path d="m497.088 332-31.199 15h-179.801c-16.5 0-30-13.5-30-30s13.5-30 30-30h176.8l34.2 15c-8.401 0-15 6.599-15 15 0 8.399 6.599 15 15 15z" fill="#f3f5f9"/><path d="m497.088 332-31.199 15h-59.801v-60h56.8l34.2 15c-8.401 0-15 6.599-15 15 0 8.399 6.599 15 15 15z" fill="#e1e6f0"/><g><path d="m512.088 332v30h-241c-16.5 0-30-13.5-30-30s13.5-60 30-60l15 30c-8.401 0-15 6.599-15 15 0 8.399 6.599 15 15 15z" fill="#59abff"/></g><path d="m406.088 332h106v30h-106z" fill="#4d87ff"/><g><g><path d="m512.088 0v302h-211l-15-34.801v-237.199l15-30z" fill="#6cf"/></g></g><path d="m406.088 0h106v302h-106z" fill="#59abff"/><g><path d="m286.088 0c-24.814 0-45 20.186-45 45v287c0-16.569 13.431-30 30-30h30v-302z" fill="#515866"/></g><path d="m275.426 405.665c-13.568 2.247-25.964 3.378-37.123 3.631-10.148.229-19.189-.222-27.215-1.003-25.774-2.51-40.291-8.705-40.913-8.996l-13.008 27.039c1.928.921 21.053 9.564 53.921 12.543 6.837.621 14.055 1.08 22.075 1.08 16.232 0 38.359-2.175 60.43-6.824-5.339-9.824-11.378-18.977-18.167-27.47z" fill="#fb9"/><path d="m293.593 433.135c-5.339-9.824-11.378-18.977-18.168-27.469-13.568 2.247-25.964 3.378-37.123 3.631-10.148.229-19.189-.222-27.215-1.003v30.586c6.837.621 14.055 1.08 22.075 1.08 16.233-.001 38.36-2.176 60.431-6.825z" fill="#ff9680"/></g></svg>